<?xml version="1.0" encoding="utf-8"?>
<!-- Generator: Adobe Illustrator 23.0.0, SVG Export Plug-In . SVG Version: 6.00 Build 0)  -->
<svg version="1.1" id="Ebene_1" xmlns="http://www.w3.org/2000/svg" xmlns:xlink="http://www.w3.org/1999/xlink" x="0px" y="0px"
	 viewBox="0 0 428.9 31.9" style="enable-background:new 0 0 428.9 31.9;" xml:space="preserve">
<style type="text/css">
	.st0{fill:#363027;}
</style>
<path class="st0" d="M20.3,20.1c0,3-2.2,4.5-6.5,4.5H0V7.3h14c3.6,0,5.6,1.9,5.6,4.7c0,1.6-0.7,2.8-2.2,3.7
	C19.3,16.4,20.3,17.8,20.3,20.1z M16.8,12.2c0-1.4-1-2.3-2.7-2.3H2.9v4.6H14C15.6,14.5,16.8,13.5,16.8,12.2z M17.4,19.7
	c0-1.7-1-2.5-3.1-2.5H2.9V22h10.9C16.2,22,17.4,21.3,17.4,19.7z"/>
<path class="st0" d="M25.3,24.6V7.3h2.9V22h13.4v2.6H25.3z"/>
<path class="st0" d="M54.2,25.1c-6.1,0-9.8-2.6-9.8-6.1V7.3h2.9v11c0,2.7,2.4,4.2,7,4.2c4.5,0,6.9-1.5,6.9-4.2v-11H64V19
	C64,22.5,60.2,25.1,54.2,25.1z"/>
<path class="st0" d="M90.5,24.6V10.5h-0.1l-9,11.3l-8.9-11.3h-0.1v14.1h-2.9V7.3h3.6l8.3,10.5l8.3-10.5h3.6v17.3H90.5z"/>
<path class="st0" d="M103,31.9V0h2v31.9H103z"/>
<path class="st0" d="M267.4,31.9V0h2v31.9H267.4z"/>
<path class="st0" d="M117.4,9.9v4.4h10.1v2.6h-10.1v7.7h-2.9V7.3H132v2.6H117.4z"/>
<path class="st0" d="M135,24.6V7.3h2.9v17.3H135z"/>
<path class="st0" d="M151,9.4c-3.6,0-5.5,0.9-5.5,2.3c0,0.8,0.5,1.3,1.5,1.7c1.9,0.7,4.7,0.4,8.2,0.9c4.3,0.6,6.4,2,6.4,4.9
	c0,3.6-3.3,5.8-9.4,5.8c-4.4,0-7.8-0.9-10.3-2.9l1.6-2.1c2.8,1.7,5.6,2.5,8.7,2.5c4.1,0,6.3-1.2,6.3-3.1c0-2.5-2.9-2.5-8-2.8
	c-5.3-0.4-8-1.2-8-4.5c0-3.2,3.1-5.3,8.7-5.3c3.7,0,6.9,0.9,9.4,2.6l-1.7,1.9C156.2,10,153.7,9.4,151,9.4z"/>
<path class="st0" d="M183.1,12.2c-1.8-1.9-4.2-2.8-7.4-2.8c-4.8,0-8.1,2.8-8.1,6.5c0,3.9,3.2,6.6,8.3,6.6c3.1,0,5.4-0.9,7.2-2.9
	l2.5,1.4c-2.5,2.9-5.5,4.1-9.8,4.1c-3,0-5.7-0.9-7.6-2.3c-2.3-1.7-3.5-4.1-3.5-6.9c0-2.8,1.2-5.1,3.5-6.8c1.9-1.5,4.6-2.3,7.6-2.3
	c4.3,0,7.7,1.6,10,4.5L183.1,12.2z"/>
<path class="st0" d="M207.2,24.6v-7.7h-13.9v7.7h-2.9V7.3h2.9v7h13.9v-7h2.9v17.3H207.2z"/>
<path class="st0" d="M215.9,24.6V7.3h17.4v2.6h-14.6v4.4h10.1v2.6h-10.1V22H234v2.6H215.9z"/>
<path class="st0" d="M254.6,24.6l-4.7-6.6h-8.7v6.6h-2.9V7.3H252c3.6,0,5.8,2.1,5.8,5.5c0,3.1-1.9,4.7-4.5,5.1l4.6,6.7H254.6z
	 M254.8,12.8c0-1.9-1.2-2.8-3.6-2.8h-10.1v5.5h10.3C253.7,15.4,254.8,14.4,254.8,12.8z"/>
<path class="st0" d="M295.3,24.6l-4.7-6.6h-8.7v6.6H279V7.3h13.6c3.6,0,5.8,2.1,5.8,5.5c0,3.1-1.9,4.7-4.5,5.1l4.6,6.7H295.3z
	 M295.5,12.8c0-1.9-1.2-2.8-3.6-2.8h-10.1v5.5h10.3C294.3,15.4,295.5,14.4,295.5,12.8z"/>
<path class="st0" d="M312.7,25.1c-6.1,0-9.8-2.6-9.8-6.1V7.3h2.9v11c0,2.7,2.4,4.2,7,4.2c4.5,0,6.9-1.5,6.9-4.2v-11h2.9V19
	C322.5,22.5,318.8,25.1,312.7,25.1z"/>
<path class="st0" d="M349.1,24.6V10.5H349l-9,11.3l-8.9-11.3h-0.1v14.1h-2.9V7.3h3.6l8.3,10.5l8.3-10.5h3.6v17.3H349.1z"/>
<path class="st0" d="M375.6,22.8c-1.9,1.4-4.6,2.3-7.6,2.3c-3,0-5.8-0.9-7.7-2.3c-2.3-1.7-3.5-4-3.5-6.9c0-2.8,1.2-5.1,3.5-6.8
	c1.9-1.4,4.6-2.3,7.6-2.3c2.9,0,5.7,0.9,7.6,2.3c2.3,1.8,3.5,4.1,3.5,6.8C379.1,18.7,377.9,21.1,375.6,22.8z M373.5,11
	c-1.4-1-3.3-1.6-5.5-1.6c-4.8,0-8.1,2.8-8.1,6.5c0,3.9,3.2,6.6,8.1,6.6c4.9,0,8.1-2.7,8.1-6.6C376.1,13.9,375.2,12.3,373.5,11z"/>
<path class="st0" d="M400.7,24.6v-7.7h-13.9v7.7h-2.9V7.3h2.9v7h13.9v-7h2.9v17.3H400.7z"/>
<path class="st0" d="M425.6,24.6l-4.7-6.6h-8.8v6.6h-2.9V7.3H423c3.6,0,5.8,2.1,5.8,5.5c0,3.1-1.9,4.7-4.5,5.1l4.6,6.7H425.6z
	 M425.9,12.8c0-1.9-1.2-2.8-3.6-2.8h-10.1v5.5h10.4C424.7,15.4,425.9,14.4,425.9,12.8z"/>
</svg>
